<svg xmlns="http://www.w3.org/2000/svg" width="342" height="247" viewBox="0 0 342 247" fill="none">
<path d="M18.2941 1H-2V21.3762M18.2941 1V21.3762M18.2941 1H38.5882M18.2941 21.3762H-2M18.2941 21.3762H38.5882M18.2941 21.3762V41.7524M-2 21.3762V41.7524M38.5882 1V21.3762M38.5882 1H58.8824M38.5882 21.3762H58.8824M38.5882 21.3762V41.7524M58.8824 1V21.3762M58.8824 1H79.1765M58.8824 21.3762H79.1765M58.8824 21.3762V41.7524M79.1765 1V21.3762M79.1765 1H99.4706M79.1765 21.3762H99.4706M79.1765 21.3762V41.7524M99.4706 1V21.3762M99.4706 1H119.765M99.4706 21.3762H119.765M99.4706 21.3762V41.7524M119.765 1V21.3762M119.765 1H140.059M119.765 21.3762H140.059M119.765 21.3762V41.7524M140.059 1V21.3762M140.059 1H160.353M140.059 21.3762H160.353M140.059 21.3762V41.7524M160.353 1V21.3762M160.353 1H180.647M160.353 21.3762H180.647M160.353 21.3762V41.7524M180.647 1V21.3762M180.647 1H200.941M180.647 21.3762H200.941M180.647 21.3762V41.7524M200.941 1V21.3762M200.941 1H221.235M200.941 21.3762H221.235M200.941 21.3762V41.7524M221.235 1V21.3762M221.235 1H241.529M221.235 21.3762H241.529M221.235 21.3762V41.7524M241.529 1V21.3762M241.529 1H261.824M241.529 21.3762H261.824M241.529 21.3762V41.7524M261.824 1V21.3762M261.824 1H282.118M261.824 21.3762H282.118M261.824 21.3762V41.7524M282.118 1V21.3762M282.118 1H302.412M282.118 21.3762H302.412M282.118 21.3762V41.7524M302.412 1V21.3762M302.412 1H322.706M302.412 21.3762H322.706M302.412 21.3762V41.7524M322.706 1V21.3762M322.706 1H343V21.3762M322.706 21.3762H343M322.706 21.3762V41.7524M343 21.3762V41.7524M18.2941 41.7524H-2M18.2941 41.7524H38.5882M18.2941 41.7524V62.1286M-2 41.7524V62.1286M38.5882 41.7524H58.8824M38.5882 41.7524V62.1286M58.8824 41.7524H79.1765M58.8824 41.7524V62.1286M79.1765 41.7524H99.4706M79.1765 41.7524V62.1286M99.4706 41.7524H119.765M99.4706 41.7524V62.1286M119.765 41.7524H140.059M119.765 41.7524V62.1286M140.059 41.7524H160.353M140.059 41.7524V62.1286M160.353 41.7524H180.647M160.353 41.7524V62.1286M180.647 41.7524H200.941M180.647 41.7524V62.1286M200.941 41.7524H221.235M200.941 41.7524V62.1286M221.235 41.7524H241.529M221.235 41.7524V62.1286M241.529 41.7524H261.824M241.529 41.7524V62.1286M261.824 41.7524H282.118M261.824 41.7524V62.1286M282.118 41.7524H302.412M282.118 41.7524V62.1286M302.412 41.7524H322.706M302.412 41.7524V62.1286M322.706 41.7524H343M322.706 41.7524V62.1286M343 41.7524V62.1286M18.2941 62.1286H-2M18.2941 62.1286H38.5882M18.2941 62.1286V82.5049M-2 62.1286V82.5049M38.5882 62.1286H58.8824M38.5882 62.1286V82.5049M58.8824 62.1286H79.1765M58.8824 62.1286V82.5049M79.1765 62.1286H99.4706M79.1765 62.1286V82.5049M99.4706 62.1286H119.765M99.4706 62.1286V82.5049M119.765 62.1286H140.059M119.765 62.1286V82.5049M140.059 62.1286H160.353M140.059 62.1286V82.5049M160.353 62.1286H180.647M160.353 62.1286V82.5049M180.647 62.1286H200.941M180.647 62.1286V82.5049M200.941 62.1286H221.235M200.941 62.1286V82.5049M221.235 62.1286H241.529M221.235 62.1286V82.5049M241.529 62.1286H261.824M241.529 62.1286V82.5049M261.824 62.1286H282.118M261.824 62.1286V82.5049M282.118 62.1286H302.412M282.118 62.1286V82.5049M302.412 62.1286H322.706M302.412 62.1286V82.5049M322.706 62.1286H343M322.706 62.1286V82.5049M343 62.1286V82.5049M18.2941 82.5049H-2M18.2941 82.5049H38.5882M18.2941 82.5049V102.881M-2 82.5049V102.881M38.5882 82.5049H58.8824M38.5882 82.5049V102.881M58.8824 82.5049H79.1765M58.8824 82.5049V102.881M79.1765 82.5049H99.4706M79.1765 82.5049V102.881M99.4706 82.5049H119.765M99.4706 82.5049V102.881M119.765 82.5049H140.059M119.765 82.5049V102.881M140.059 82.5049H160.353M140.059 82.5049V102.881M160.353 82.5049H180.647M160.353 82.5049V102.881M180.647 82.5049H200.941M180.647 82.5049V102.881M200.941 82.5049H221.235M200.941 82.5049V102.881M221.235 82.5049H241.529M221.235 82.5049V102.881M241.529 82.5049H261.824M241.529 82.5049V102.881M261.824 82.5049H282.118M261.824 82.5049V102.881M282.118 82.5049H302.412M282.118 82.5049V102.881M302.412 82.5049H322.706M302.412 82.5049V102.881M322.706 82.5049H343M322.706 82.5049V102.881M343 82.5049V102.881M18.2941 102.881H-2M18.2941 102.881H38.5882M18.2941 102.881V123.257M-2 102.881V123.257M38.5882 102.881H58.8824M38.5882 102.881V123.257M58.8824 102.881H79.1765M58.8824 102.881V123.257M79.1765 102.881H99.4706M79.1765 102.881V123.257M99.4706 102.881H119.765M99.4706 102.881V123.257M119.765 102.881H140.059M119.765 102.881V123.257M140.059 102.881H160.353M140.059 102.881V123.257M160.353 102.881H180.647M160.353 102.881V123.257M180.647 102.881H200.941M180.647 102.881V123.257M200.941 102.881H221.235M200.941 102.881V123.257M221.235 102.881H241.529M221.235 102.881V123.257M241.529 102.881H261.824M241.529 102.881V123.257M261.824 102.881H282.118M261.824 102.881V123.257M282.118 102.881H302.412M282.118 102.881V123.257M302.412 102.881H322.706M302.412 102.881V123.257M322.706 102.881H343M322.706 102.881V123.257M343 102.881V123.257M18.2941 123.257H-2M18.2941 123.257H38.5882M18.2941 123.257V143.633M-2 123.257V143.633M38.5882 123.257H58.8824M38.5882 123.257V143.633M58.8824 123.257H79.1765M58.8824 123.257V143.633M79.1765 123.257H99.4706M79.1765 123.257V143.633M99.4706 123.257H119.765M99.4706 123.257V143.633M119.765 123.257H140.059M119.765 123.257V143.633M140.059 123.257H160.353M140.059 123.257V143.633M160.353 123.257H180.647M160.353 123.257V143.633M180.647 123.257H200.941M180.647 123.257V143.633M200.941 123.257H221.235M200.941 123.257V143.633M221.235 123.257H241.529M221.235 123.257V143.633M241.529 123.257H261.824M241.529 123.257V143.633M261.824 123.257H282.118M261.824 123.257V143.633M282.118 123.257H302.412M282.118 123.257V143.633M302.412 123.257H322.706M302.412 123.257V143.633M322.706 123.257H343M322.706 123.257V143.633M343 123.257V143.633M18.2941 143.633H-2M18.2941 143.633H38.5882M18.2941 143.633V164.01M-2 143.633V164.01M38.5882 143.633H58.8824M38.5882 143.633V164.01M58.8824 143.633H79.1765M58.8824 143.633V164.01M79.1765 143.633H99.4706M79.1765 143.633V164.01M99.4706 143.633H119.765M99.4706 143.633V164.01M119.765 143.633H140.059M119.765 143.633V164.01M140.059 143.633H160.353M140.059 143.633V164.01M160.353 143.633H180.647M160.353 143.633V164.01M180.647 143.633H200.941M180.647 143.633V164.01M200.941 143.633H221.235M200.941 143.633V164.01M221.235 143.633H241.529M221.235 143.633V164.01M241.529 143.633H261.824M241.529 143.633V164.01M261.824 143.633H282.118M261.824 143.633V164.01M282.118 143.633H302.412M282.118 143.633V164.01M302.412 143.633H322.706M302.412 143.633V164.01M322.706 143.633H343M322.706 143.633V164.01M343 143.633V164.01M18.2941 164.01H-2M18.2941 164.01H38.5882M18.2941 164.01V184.386M-2 164.01V184.386M38.5882 164.01H58.8824M38.5882 164.01V184.386M58.8824 164.01H79.1765M58.8824 164.01V184.386M79.1765 164.01H99.4706M79.1765 164.01V184.386M99.4706 164.01H119.765M99.4706 164.01V184.386M119.765 164.01H140.059M119.765 164.01V184.386M140.059 164.01H160.353M140.059 164.01V184.386M160.353 164.01H180.647M160.353 164.01V184.386M180.647 164.01H200.941M180.647 164.01V184.386M200.941 164.01H221.235M200.941 164.01V184.386M221.235 164.01H241.529M221.235 164.01V184.386M241.529 164.01H261.824M241.529 164.01V184.386M261.824 164.01H282.118M261.824 164.01V184.386M282.118 164.01H302.412M282.118 164.01V184.386M302.412 164.01H322.706M302.412 164.01V184.386M322.706 164.01H343M322.706 164.01V184.386M343 164.01V184.386M18.2941 184.386H-2M18.2941 184.386H38.5882M18.2941 184.386V204.762M-2 184.386V204.762M38.5882 184.386H58.8824M38.5882 184.386V204.762M58.8824 184.386H79.1765M58.8824 184.386V204.762M79.1765 184.386H99.4706M79.1765 184.386V204.762M99.4706 184.386H119.765M99.4706 184.386V204.762M119.765 184.386H140.059M119.765 184.386V204.762M140.059 184.386H160.353M140.059 184.386V204.762M160.353 184.386H180.647M160.353 184.386V204.762M180.647 184.386H200.941M180.647 184.386V204.762M200.941 184.386H221.235M200.941 184.386V204.762M221.235 184.386H241.529M221.235 184.386V204.762M241.529 184.386H261.824M241.529 184.386V204.762M261.824 184.386H282.118M261.824 184.386V204.762M282.118 184.386H302.412M282.118 184.386V204.762M302.412 184.386H322.706M302.412 184.386V204.762M322.706 184.386H343M322.706 184.386V204.762M343 184.386V204.762M18.2941 204.762H-2M18.2941 204.762H38.5882M18.2941 204.762V225.138M-2 204.762V225.138M38.5882 204.762H58.8824M38.5882 204.762V225.138M58.8824 204.762H79.1765M58.8824 204.762V225.138M79.1765 204.762H99.4706M79.1765 204.762V225.138M99.4706 204.762H119.765M99.4706 204.762V225.138M119.765 204.762H140.059M119.765 204.762V225.138M140.059 204.762H160.353M140.059 204.762V225.138M160.353 204.762H180.647M160.353 204.762V225.138M180.647 204.762H200.941M180.647 204.762V225.138M200.941 204.762H221.235M200.941 204.762V225.138M221.235 204.762H241.529M221.235 204.762V225.138M241.529 204.762H261.824M241.529 204.762V225.138M261.824 204.762H282.118M261.824 204.762V225.138M282.118 204.762H302.412M282.118 204.762V225.138M302.412 204.762H322.706M302.412 204.762V225.138M322.706 204.762H343M322.706 204.762V225.138M343 204.762V225.138M18.2941 225.138H-2M18.2941 225.138H38.5882M18.2941 225.138V245.515M-2 225.138V245.515H18.2941M38.5882 225.138H58.8824M38.5882 225.138V245.515M58.8824 225.138H79.1765M58.8824 225.138V245.515M79.1765 225.138H99.4706M79.1765 225.138V245.515M99.4706 225.138H119.765M99.4706 225.138V245.515M119.765 225.138H140.059M119.765 225.138V245.515M140.059 225.138H160.353M140.059 225.138V245.515M160.353 225.138H180.647M160.353 225.138V245.515M180.647 225.138H200.941M180.647 225.138V245.515M200.941 225.138H221.235M200.941 225.138V245.515M221.235 225.138H241.529M221.235 225.138V245.515M241.529 225.138H261.824M241.529 225.138V245.515M261.824 225.138H282.118M261.824 225.138V245.515M282.118 225.138H302.412M282.118 225.138V245.515M302.412 225.138H322.706M302.412 225.138V245.515M322.706 225.138H343M322.706 225.138V245.515M343 225.138V245.515H322.706M18.2941 245.515H38.5882M38.5882 245.515H58.8824M58.8824 245.515H79.1765M79.1765 245.515H99.4706M99.4706 245.515H119.765M119.765 245.515H140.059M140.059 245.515H160.353M160.353 245.515H180.647M180.647 245.515H200.941M200.941 245.515H221.235M221.235 245.515H241.529M241.529 245.515H261.824M261.824 245.515H282.118M282.118 245.515H302.412M302.412 245.515H322.706" stroke="url(#paint0_radial_2_1139)" stroke-opacity="0.08"/>
<defs>
<radialGradient id="paint0_radial_2_1139" cx="0" cy="0" r="1" gradientUnits="userSpaceOnUse" gradientTransform="translate(170.5 129.788) rotate(90) scale(115.465 172.76)">
<stop stop-color="white"/>
<stop offset="1" stop-color="white" stop-opacity="0"/>
</radialGradient>
</defs>
</svg>